 <svg version="1.0" xmlns="http://www.w3.org/2000/svg" width="700.000000pt" height="700.000000pt" viewBox="0 0 700.000000 700.000000" preserveAspectRatio="xMidYMid meet">
<metadata>
Created by potrace 1.12, written by Peter Selinger 2001-2015
</metadata>
<g transform="translate(0.000000,700.000000) scale(0.100000,-0.100000)" fill="#000000" stroke="none">
<path d="M767 5436 c-81 -33 -125 -66 -208 -153 -111 -118 -198 -264 -265
-451 -38 -104 -41 -137 -18 -171 56 -79 260 -63 597 46 l142 46 105 -12 c77
-9 124 -9 177 -2 85 13 178 42 178 56 0 6 -55 13 -131 16 -84 5 -159 15 -208
28 -103 28 -127 27 -306 -18 -165 -42 -408 -86 -418 -77 -7 8 51 162 95 251
128 257 285 397 462 412 39 3 71 10 71 15 0 19 -72 38 -142 38 -54 0 -88 -7
-131 -24z m-126 -153 c-113 -148 -177 -259 -235 -410 -42 -108 -44 -136 -14
-158 18 -12 21 -19 12 -33 -15 -24 -41 -27 -69 -8 -34 23 -32 58 9 164 66 172
146 308 241 410 58 63 95 85 56 35z m439 -483 c0 -5 -22 -10 -48 -10 -28 0
-90 -14 -152 -35 -110 -37 -160 -44 -160 -22 0 19 219 74 298 76 35 0 62 -3
62 -9z m-450 -83 c53 -2 80 -10 80 -26 0 -8 -119 -5 -165 4 -25 5 -35 1 -64
-29 -33 -34 -61 -47 -61 -27 0 5 21 27 46 51 40 37 50 41 77 35 18 -4 57 -7
87 -8z"></path>
<path d="M1720 5424 c-37 -16 -70 -42 -70 -55 0 -4 19 1 43 11 31 14 65 20
128 20 95 0 138 -11 186 -46 23 -17 34 -21 39 -12 10 16 -57 72 -104 86 -55
17 -180 14 -222 -4z"></path>
<path d="M1705 5346 c-5 -2 -35 -12 -65 -21 -30 -9 -70 -28 -89 -42 -40 -31
-75 -104 -67 -139 9 -34 21 -30 23 7 3 41 27 67 83 92 62 29 291 37 372 13
107 -31 161 -87 173 -181 7 -62 18 -70 34 -24 35 102 -23 210 -141 265 -57 26
-74 29 -188 31 -69 1 -129 1 -135 -1z"></path>
<path d="M4869 5162 c-57 -37 -126 -112 -150 -165 -12 -28 -19 -65 -19 -110 0
-68 22 -143 38 -133 5 3 12 35 15 71 4 36 15 86 26 111 33 74 157 204 195 204
3 0 21 -14 41 -31 33 -30 35 -30 35 -9 0 12 -15 37 -34 56 -43 43 -85 45 -147
6z"></path>
<path d="M5012 5053 c42 -81 42 -83 23 -188 -26 -147 -28 -163 -21 -181 8 -22
29 -5 61 50 66 113 66 237 -1 296 -31 27 -72 42 -62 23z"></path>
<path d="M5272 4745 c-53 -27 -109 -86 -98 -103 3 -6 33 1 68 15 88 36 149 30
220 -23 77 -58 126 -88 204 -127 118 -59 158 -69 314 -78 93 -5 190 -17 270
-35 171 -36 178 -37 245 -25 92 17 168 90 182 174 3 22 18 54 34 72 16 18 26
35 22 39 -24 24 -91 -22 -123 -84 -24 -47 -61 -77 -112 -91 -33 -8 -53 -6
-126 15 -153 45 -274 67 -387 71 -153 4 -257 40 -459 158 -57 33 -81 41 -135
44 -57 4 -73 1 -119 -22z m331 -115 c174 -87 220 -101 382 -110 132 -8 318
-41 330 -60 3 -4 -1 -12 -8 -18 -8 -7 -42 -4 -107 9 -52 10 -138 19 -191 19
-160 0 -274 39 -451 152 -76 49 -119 85 -84 72 9 -3 67 -32 129 -64z m1042
-98 c0 -18 -20 -15 -23 4 -3 10 1 15 10 12 7 -3 13 -10 13 -16z m-35 -44 c0
-14 -59 -78 -72 -78 -15 0 -8 21 20 56 27 34 52 45 52 22z m-222 -40 c-6 -16
-36 -34 -44 -25 -9 9 15 37 33 37 8 0 13 -5 11 -12z m72 -11 c0 -7 -7 -23 -16
-36 -22 -30 -39 -13 -23 22 13 28 39 37 39 14z"></path>
<path d="M1924 4669 c-11 -18 67 -88 134 -121 70 -35 96 -62 114 -119 26 -89
132 -173 273 -218 120 -39 216 -51 403 -51 183 0 303 12 407 41 92 25 201 27
245 6 27 -14 32 -14 37 -1 3 8 -1 22 -8 31 -18 21 -108 63 -136 63 -12 0 -24
4 -27 8 -3 5 -40 4 -83 -2 -128 -18 -601 -13 -708 7 -169 31 -284 91 -315 163
-39 89 -80 119 -227 163 -40 12 -75 26 -78 31 -8 13 -22 13 -31 -1z m376 -311
c0 -13 -22 -9 -42 9 -32 28 -22 46 12 21 17 -12 30 -25 30 -30z m154 -50 c5
-9 7 -20 3 -24 -8 -8 -47 24 -47 38 0 15 32 5 44 -14z m186 -49 c94 -13 516
-16 568 -5 49 11 39 -10 -11 -22 -75 -19 -318 -35 -440 -28 -103 5 -257 29
-280 43 -19 12 18 34 47 29 17 -3 69 -11 116 -17z"></path>
<path d="M1010 4475 c0 -8 5 -15 10 -15 6 0 10 7 10 15 0 8 -4 15 -10 15 -5 0
-10 -7 -10 -15z"></path>
<path d="M5400 4413 c0 -130 60 -293 148 -403 20 -25 37 -47 39 -49 2 -2 5 -2
8 0 2 3 -14 52 -37 110 -22 57 -62 169 -87 248 -26 80 -52 146 -59 149 -8 2
-12 -13 -12 -55z"></path>
<path d="M997 4294 c-12 -250 16 -530 77 -770 104 -408 295 -767 574 -1082
l73 -82 -68 -78 c-296 -333 -385 -569 -258 -681 45 -39 90 -52 206 -58 71 -4
111 -1 152 11 62 18 117 58 117 86 0 16 -11 18 -102 17 -108 0 -222 27 -248
58 -31 37 80 206 277 423 l75 83 36 -33 c232 -208 729 -481 946 -518 67 -12
75 -17 55 -37 -19 -19 -2 -43 30 -43 38 0 91 44 91 76 0 31 -51 87 -98 109
-162 74 -336 174 -557 321 -157 104 -354 254 -355 269 0 6 104 114 230 240
258 257 260 261 239 363 -25 125 -152 300 -414 572 -122 126 -159 182 -185
279 -13 48 -16 161 -6 212 8 41 65 190 77 203 5 6 9 14 9 20 0 18 -50 -57 -80
-119 -81 -171 -80 -356 4 -510 18 -33 80 -118 137 -190 124 -154 226 -305 268
-395 51 -111 52 -107 -36 -177 -85 -67 -183 -153 -311 -274 -45 -44 -86 -79
-90 -79 -10 0 -135 129 -204 210 -301 357 -501 769 -587 1214 -30 154 -51 327
-51 423 0 100 -17 53 -23 -63z m191 -892 c30 -70 58 -139 64 -153 6 -14 8 -35
4 -45 -7 -18 -8 -18 -26 4 -16 20 -89 224 -104 295 -14 61 12 19 62 -101z
m1119 -193 c115 -151 157 -251 139 -325 -5 -17 -92 -110 -237 -253 -263 -259
-261 -256 -186 -328 143 -137 601 -434 852 -552 48 -22 88 -48 95 -61 17 -31
4 -37 -23 -12 -15 14 -51 28 -93 37 -191 40 -541 221 -791 410 -164 124 -166
125 -193 125 -32 -1 -50 -16 -143 -122 -154 -176 -257 -334 -257 -396 0 -34
32 -67 80 -83 31 -11 89 -47 79 -50 -2 -1 -24 -3 -49 -5 -88 -8 -181 53 -195
128 -18 98 96 295 319 552 67 78 66 97 -10 183 -93 105 -166 200 -231 298 -62
94 -171 288 -190 340 -50 134 1 113 87 -35 138 -239 438 -590 504 -590 18 0
59 32 148 113 68 62 173 155 233 206 61 52 116 106 124 121 28 56 -36 193
-194 411 -47 65 -85 122 -85 126 1 15 146 -144 217 -238z m-577 -1609 c0 -5
-4 -10 -9 -10 -5 0 -23 -3 -40 -6 -24 -5 -31 -3 -31 10 0 12 10 16 40 16 22 0
40 -4 40 -10z"></path>
<path d="M4797 4374 c-109 -56 -165 -65 -380 -67 -147 -1 -198 1 -216 12 -19
10 -101 16 -325 22 -220 6 -317 12 -359 23 -76 21 -120 20 -147 -2 -26 -21
-20 -43 10 -35 11 3 49 -9 86 -27 36 -17 84 -38 106 -46 56 -19 239 -42 407
-49 79 -3 169 -13 200 -21 71 -18 169 -18 307 1 153 21 230 47 302 100 60 44
102 100 85 115 -4 5 -39 -7 -76 -26z m-592 -101 c88 -17 115 -27 115 -44 0
-12 -98 -11 -140 1 -19 6 -114 15 -210 20 -185 9 -330 27 -330 40 0 15 469 1
565 -17z m395 9 c0 -14 -68 -74 -77 -69 -6 4 -8 20 -5 36 3 25 9 31 36 34 17
2 34 5 39 5 4 1 7 -2 7 -6z m-203 -34 c35 -34 41 -48 21 -48 -14 0 -78 59 -78
72 0 17 26 7 57 -24z"></path>
<path d="M4830 4088 c0 -8 50 -50 110 -93 104 -74 180 -143 180 -165 0 -6 5
-10 10 -10 14 0 12 45 -4 83 -21 50 -84 108 -161 148 -83 44 -135 58 -135 37z"></path>
<path d="M5620 3938 c0 -7 19 -24 42 -37 76 -43 228 -203 421 -444 106 -131
193 -234 195 -228 5 15 -95 207 -154 297 -62 94 -179 231 -255 297 -87 76
-249 151 -249 115z"></path>
<path d="M5560 3818 c0 -16 94 -139 235 -308 164 -196 234 -288 241 -316 11
-42 27 -27 20 19 -8 53 -65 174 -113 241 -72 99 -199 240 -278 308 -77 66
-105 81 -105 56z"></path>
<path d="M5060 3746 c-122 -83 -199 -294 -171 -468 13 -77 49 -198 59 -198 4
0 8 64 9 143 2 211 34 338 119 464 24 36 44 70 44 74 0 16 -25 10 -60 -15z"></path>
<path d="M5417 3753 c-12 -11 -8 -33 19 -101 59 -148 273 -590 287 -591 16 -2
-23 180 -60 277 -32 87 -107 233 -165 324 -52 81 -71 102 -81 91z"></path>
<path d="M5152 3633 c-142 -70 -182 -281 -158 -828 7 -170 6 -213 -8 -287 -28
-149 -88 -269 -163 -328 -31 -24 -27 -25 15 -5 53 27 139 130 182 219 66 137
90 250 101 471 17 385 37 566 69 626 6 10 22 26 35 35 23 15 29 15 75 -2 63
-23 78 -12 56 39 -29 70 -127 98 -204 60z m98 -30 c0 -5 -17 -17 -37 -28 -71
-39 -95 -103 -114 -313 -6 -70 -17 -140 -25 -156 -7 -16 -11 -32 -8 -37 3 -5
2 -14 -1 -20 -4 -6 -13 1 -21 16 -39 75 7 392 69 479 28 40 137 86 137 59z
m-170 -685 c0 -114 -9 -208 -20 -208 -3 0 -12 59 -18 132 -10 114 -10 135 3
155 28 42 35 26 35 -79z"></path>
<path d="M5539 3032 c-118 -76 -244 -226 -311 -372 -120 -262 -208 -419 -313
-560 -174 -234 -256 -404 -229 -474 10 -27 24 -17 18 13 -13 62 54 159 241
351 214 219 310 359 429 623 20 43 75 140 124 215 117 181 126 197 119 216 -9
23 -27 20 -78 -12z m-19 -87 c0 -2 -32 -53 -71 -112 -76 -115 -112 -182 -151
-278 -33 -80 -126 -231 -203 -330 -61 -78 -105 -125 -105 -111 0 3 32 59 71
124 64 107 109 194 213 414 20 42 56 103 80 135 77 100 166 186 166 158z"></path>
</g>
</svg>